<mxfile host="app.diagrams.net" modified="2022-03-11T02:54:08.599Z" agent="5.0 (Windows NT 6.1; Win64; x64) AppleWebKit/537.36 (KHTML, like Gecko) Chrome/99.0.4844.51 Safari/537.36" etag="8M4LnO01HDvB8DM_sGRn" version="17.1.1" type="github">
  <diagram id="ur86RE3e0XrEDv0Te8N1" name="Page-1">
    <mxGraphModel dx="1038" dy="548" grid="1" gridSize="10" guides="1" tooltips="1" connect="1" arrows="1" fold="1" page="1" pageScale="1" pageWidth="827" pageHeight="1169" math="0" shadow="0">
      <root>
        <mxCell id="0" />
        <mxCell id="1" parent="0" />
        <mxCell id="qv1hIAx20BM2JfVXaYNz-1" value="" style="ellipse;whiteSpace=wrap;html=1;" vertex="1" parent="1">
          <mxGeometry x="350" y="440" width="120" height="80" as="geometry" />
        </mxCell>
        <mxCell id="qv1hIAx20BM2JfVXaYNz-2" value="" style="shape=parallelogram;perimeter=parallelogramPerimeter;whiteSpace=wrap;html=1;fixedSize=1;" vertex="1" parent="1">
          <mxGeometry x="350" y="450" width="120" height="60" as="geometry" />
        </mxCell>
        <mxCell id="qv1hIAx20BM2JfVXaYNz-3" value="" style="shape=document;whiteSpace=wrap;html=1;boundedLbl=1;" vertex="1" parent="1">
          <mxGeometry x="350" y="440" width="120" height="80" as="geometry" />
        </mxCell>
        <mxCell id="qv1hIAx20BM2JfVXaYNz-4" value="" style="shape=xor;whiteSpace=wrap;html=1;" vertex="1" parent="1">
          <mxGeometry x="380" y="440" width="60" height="80" as="geometry" />
        </mxCell>
        <mxCell id="qv1hIAx20BM2JfVXaYNz-5" value="Vertical Container" style="swimlane;" vertex="1" parent="1">
          <mxGeometry x="310" y="380" width="200" height="200" as="geometry" />
        </mxCell>
        <mxCell id="qv1hIAx20BM2JfVXaYNz-6" value="" style="swimlane;startSize=0;" vertex="1" parent="1">
          <mxGeometry x="310" y="380" width="200" height="200" as="geometry" />
        </mxCell>
        <mxCell id="qv1hIAx20BM2JfVXaYNz-7" value="" style="triangle;whiteSpace=wrap;html=1;" vertex="1" parent="1">
          <mxGeometry x="380" y="440" width="60" height="80" as="geometry" />
        </mxCell>
        <mxCell id="qv1hIAx20BM2JfVXaYNz-8" value="" style="shape=process;whiteSpace=wrap;html=1;backgroundOutline=1;" vertex="1" parent="1">
          <mxGeometry x="350" y="450" width="120" height="60" as="geometry" />
        </mxCell>
        <mxCell id="qv1hIAx20BM2JfVXaYNz-9" value="" style="ellipse;whiteSpace=wrap;html=1;aspect=fixed;" vertex="1" parent="1">
          <mxGeometry x="370" y="440" width="80" height="80" as="geometry" />
        </mxCell>
      </root>
    </mxGraphModel>
  </diagram>
</mxfile>
